<svg width="240" height="80" viewBox="0 0 240 80" xmlns="http://www.w3.org/2000/svg">
  <!-- ZuR Logo with house design -->
  <g>
    <!-- Z -->
    <path d="M5 10 L35 10 L35 16 L15 30 L35 30 L35 36 L5 36 L5 30 L25 16 L5 16 Z" fill="#1e3a8a" stroke="none"/>
    
    <!-- u with integrated house -->
    <g>
      <!-- u base -->
      <path d="M40 36 L40 22 C40 18 44 14 50 14 C56 14 60 18 60 22 L60 36 L54 36 L54 22 C54 20 52 18 50 18 C48 18 46 20 46 22 L46 36 Z" fill="#1e3a8a"/>
      
      <!-- House roof integrated in u -->
      <path d="M42 14 L50 8 L58 14 L54 14 L50 11 L46 14 Z" fill="#dc2626"/>
      
      <!-- House body in u -->
      <rect x="47" y="18" width="6" height="8" fill="#dc2626" opacity="0.3"/>
      <rect x="49" y="20" width="2" height="4" fill="#1e3a8a"/>
    </g>
    
    <!-- R -->
    <path d="M65 10 L65 36 L71 36 L71 26 L78 26 L84 36 L91 36 L84 26 C88 25 91 22 91 17 C91 12 88 10 82 10 Z M71 16 L82 16 C84 16 85 17 85 19 C85 21 84 22 82 22 L71 22 Z" fill="#dc2626"/>
  </g>
  
  <!-- REAL ESTATE Text -->
  <text x="5" y="55" font-family="Arial, sans-serif" font-size="14" font-weight="bold" fill="#1f2937" letter-spacing="2px">REAL ESTATE</text>
</svg> 